{
	"asset":{
		"generator":"Khronos glTF Blender I/O v3.6.27",
		"version":"2.0"
	},
	"extensionsUsed":[
		"KHR_materials_ior"
	],
	"scene":0,
	"scenes":[
		{
			"name":"Scene",
			"nodes":[
				0
			]
		}
	],
	"nodes":[
		{
			"mesh":0,
			"name":"3Dbuilding_GZ_K11gwyszx",
			"translation":[
				-6.074069976806641,
				264.56695556640625,
				-28.105621337890625
			]
		}
	],
	"materials":[
		{
			"alphaCutoff":0,
			"alphaMode":"MASK",
			"extensions":{
				"KHR_materials_specular":{
					"specularColorFactor":[
						0,
						0,
						0
					]
				},
				"KHR_materials_ior":{
					"ior":1.4500000476837158
				}
			},
			"name":"3Dbuilding_GZ_K11gwyszx.001",
			"pbrMetallicRoughness":{
				"baseColorTexture":{
					"index":0
				},
				"roughnessFactor":0.858578622341156
			}
		}
	],
	"meshes":[
		{
			"name":"\u7f51\u683c.001",
			"primitives":[
				{
					"attributes":{
						"POSITION":0,
						"NORMAL":1,
						"TEXCOORD_0":2
					},
					"indices":3,
					"material":0
				}
			]
		}
	],
	"textures":[
		{
			"sampler":0,
			"source":0
		}
	],
	"images":[
		{
			"mimeType":"image/png",
			"name":"3Dbuilding_GZ_K11gwyszx_D",
			"uri":"3Dbuilding_GZ_K11gwyszx_D.png"
		}
	],
	"accessors":[
		{
			"bufferView":0,
			"componentType":5126,
			"count":1222,
			"max":[
				118.08184051513672,
				264.9039306640625,
				126.19914245605469
			],
			"min":[
				-105.93370056152344,
				-264.9039306640625,
				-69.98789978027344
			],
			"type":"VEC3"
		},
		{
			"bufferView":1,
			"componentType":5126,
			"count":1222,
			"type":"VEC3"
		},
		{
			"bufferView":2,
			"componentType":5126,
			"count":1222,
			"type":"VEC2"
		},
		{
			"bufferView":3,
			"componentType":5123,
			"count":1968,
			"type":"SCALAR"
		}
	],
	"bufferViews":[
		{
			"buffer":0,
			"byteLength":14664,
			"byteOffset":0,
			"target":34962
		},
		{
			"buffer":0,
			"byteLength":14664,
			"byteOffset":14664,
			"target":34962
		},
		{
			"buffer":0,
			"byteLength":9776,
			"byteOffset":29328,
			"target":34962
		},
		{
			"buffer":0,
			"byteLength":3936,
			"byteOffset":39104,
			"target":34963
		}
	],
	"samplers":[
		{
			"magFilter":9729,
			"minFilter":9987
		}
	],
	"buffers":[
		{
			"byteLength":43040,
			"uri":"GZ_K11.bin"
		}
	]
}
